HIERARCHY
ROOT Hips
{
  OFFSET 0.0 0.0 0.0
  CHANNELS 6 XPOSITION YPOSITION ZPOSITION ZROTATION XROTATION YROTATION 
  JOINT LeftUpLeg
  {
    OFFSET 0.089458 -0.0866707 0.00101652
    CHANNELS 3 ZROTATION XROTATION YROTATION 
    JOINT LeftLeg
    {
      OFFSET 0.0 -0.444227 0.013727
      CHANNELS 3 ZROTATION XROTATION YROTATION 
      JOINT LeftFoot
      {
        OFFSET -0.00253549 -0.420924 -0.0146059
        CHANNELS 3 ZROTATION XROTATION YROTATION 
        End Site
        {
          OFFSET -0.0004 -0.0441509 0.084991
        }
      }
    }
  }
  JOINT Spine
  {
    OFFSET 0.0 0.118905 0.0
    CHANNELS 3 ZROTATION XROTATION YROTATION 
    JOINT Spine1
    {
      OFFSET 0.0 0.256574 0.00127663
      CHANNELS 3 ZROTATION XROTATION YROTATION 
      End Site
      {
        OFFSET -0.0029 0.2150836 0.02525291
      }
      JOINT RightArm
      {
        OFFSET -0.162727 -0.05365632 0.00102123
        CHANNELS 3 ZROTATION XROTATION YROTATION 
        JOINT RightForeArm
        {
          OFFSET -0.26364 0.00099144 -0.0142434
          CHANNELS 3 ZROTATION XROTATION YROTATION 
          End Site
          {
            OFFSET -0.220324 0.00085362 0.0102216
          }
        }
      }
      JOINT LeftArm
      {
        OFFSET 0.162727 -0.0536563199 0.00102123
        CHANNELS 3 ZROTATION XROTATION YROTATION 
        JOINT LeftForeArm
        {
          OFFSET 0.262597 0.00099144 -0.0142434
          CHANNELS 3 ZROTATION XROTATION YROTATION 
          End Site
          {
            OFFSET 0.220902 0.00085362 0.0102216
          }
        }
      }
    }
  }
  JOINT RightUpLeg
  {
    OFFSET -0.089458 -0.0866707 0.00101652
    CHANNELS 3 ZROTATION XROTATION YROTATION 
    JOINT RightLeg
    {
      OFFSET 0.0 -0.444227 0.013727
      CHANNELS 3 ZROTATION XROTATION YROTATION 
      JOINT RightFoot
      {
        OFFSET 0.00253549 -0.420924 -0.0146059
        CHANNELS 3 ZROTATION XROTATION YROTATION 
        End Site
        {
          OFFSET 0.0004 -0.0441509 0.084991
        }
      }
    }
  }
}
MOTION
Frames: 14
Frame Time: 0.033333
22.019124 1.00964697988 -0.4003868 -5.03760986432 -2.60313023421 -91.0994034137 -6.72786012964 4.26186003028 1.66349993615 -0.823091049118 15.8204990896 20.0971998403 -1.07428000702 -19.9737988125 -0.0112124992395 -1.42408003452 14.7315005585 -0.215312001909 -2.47932985385 -0.89837403448 0.107111006554 76.904487639 -9.83087056487 -1.2471136751 4.37819010468 32.2295965611 14.9154990245 -71.9211884507 -9.57197907456 -1.68546593125 6.02891022329 33.412899514 -31.6150981018 -6.01023990119 -16.3665009967 -5.74490028543 2.62285005756 7.64947975247 -20.2229999719 10.334499686 -6.82432972148 -0.242940997556 
22.035477 1.01398697988 -0.397474 -5.07735003935 -1.51512997797 -91.4513015899 -5.70347988387 3.70000994982 1.7685900805 -0.942503032934 14.8613014735 20.3376003009 -0.407932007642 -18.691599843 0.0589642026816 -1.03288009603 14.4213997249 -0.34725599547 -1.99183982944 -1.03832994666 -0.0846441998467 76.4925316094 -10.4936482163 -2.01446098908 4.64452009787 33.7819995217 14.1653999659 -72.37284837 -9.72632683566 -0.484391199604 5.47571015052 32.9912002196 -30.5905014244 -5.07575006754 -16.800199226 -6.11093994145 2.53719009386 13.0208002799 -19.898099826 9.53594043518 -7.7450195848 -0.1660880025 
22.051017 1.01673697988 -0.3956962 -5.35174990105 -0.619214011179 -91.4914972532 -4.78690008688 3.09964016376 2.07567997461 -0.954209016676 14.6417996841 20.0876017169 0.278924008249 -17.7714008996 0.118684995556 -1.25313992966 14.4211999419 -0.446327008927 -0.999323910248 -1.16298997036 -0.402954000357 75.9976365927 -10.4051605542 -3.00187070154 4.52945958489 32.9444988011 14.5143005429 -72.7155189607 -8.74830863331 0.416794871782 4.69861007346 32.2143003524 -29.496400742 -4.10060993615 -16.6366008275 -8.30386993156 0.870071971715 18.9480000218 -16.4542979559 8.87136985913 -9.24885050889 -0.0570806045952 
22.065995 1.01840697988 -0.3946144 -5.87850988465 0.0793628027617 -91.4806031014 -4.087989881 2.64454999544 2.32198001118 -0.835623005502 14.7507002203 19.8224981696 0.712464983091 -16.9485987461 0.147478004848 -1.64830991561 14.6076999647 -0.474612022899 -0.0175781004763 -1.11301998622 -0.673892023362 75.6109795838 -10.7198102938 -3.93388928738 4.34820984309 31.1881976183 15.1641008349 -73.0133561896 -7.1270014437 0.87905655196 3.87406024534 31.3889027271 -28.1018007645 -3.22345996746 -15.8040007676 -8.25221918728 -0.873942981427 24.6057018435 -14.4916994469 9.01364013822 -10.5419991254 0.0395358029587 
22.08039 1.01932697988 -0.3940384 -6.5207397657 0.588187983595 -91.6299998291 -3.57807997408 2.29047000066 2.57033999011 -0.76411898238 14.990199096 19.6764004232 0.880248953578 -16.2136994197 0.150791006781 -2.06090008558 14.6887999234 -0.435290010198 0.649671051987 -0.747689015693 -0.835725991948 75.3717795289 -11.4421531712 -4.41980175154 4.27220008291 29.976501569 15.5380997957 -73.3365334204 -5.63607616204 1.02828658037 3.06605014719 30.5736001213 -26.423500342 -2.62561991271 -14.4244989232 -4.90235973904 -1.02743995708 29.8642986364 -16.054699446 9.56085013509 -11.3920998374 0.119704001083 
22.094128 1.01998697988 -0.3939462 -7.06278016314 0.886505033332 -91.91779668 -3.14934003525 1.89189004278 2.93688998933 -0.923425994417 15.2131996497 19.5288000353 1.05803002649 -15.5251002382 0.153322005415 -2.42737004352 14.5459004131 -0.364734983165 0.957459973277 -0.315030976203 -0.909021018735 75.2423132932 -11.7115050962 -4.54519079121 4.19591967649 29.5858010881 15.7205990352 -73.6068244964 -4.81026232205 1.11966629389 2.17163004519 29.8559999566 -24.5661004066 -2.20871989337 -12.654300013 -2.09819996208 -1.09738995208 34.4048991136 -17.1502003172 9.80384009122 -12.1771993467 0.190920996177 
22.107346 1.02076697988 -0.3943242 -7.3938300407 1.05380000496 -92.1739970758 -2.75374017428 1.40770999207 3.29099986618 -1.2085300432 15.2307993397 19.3462990882 1.27834001933 -14.7001995091 0.154234009092 -2.62086994303 14.2834999131 -0.326803020681 0.984452027103 -0.162913992248 -0.940682040468 75.2080940454 -11.086581207 -4.64100255045 4.04118003329 29.3525023166 16.0193002831 -73.6598609153 -5.31174292176 1.34512891741 1.18666991604 30.082400237 -22.7254993216 -1.95801993432 -10.6158992109 0.00164061996387 -1.17110007294 38.0482996018 -17.6276988421 9.71380966023 -12.773999932 0.235450014264 
22.120401 1.02130697988 -0.3951757 -7.57111016193 1.124260023 -92.2925008579 -2.47105017048 0.783834003255 3.43953001365 -1.38116008627 15.1911005727 19.227501608 1.3599199055 -13.8085994214 0.143004004158 -2.64983997695 14.0022002797 -0.351967998904 0.793176954987 -0.260778997069 -0.967936949855 75.3206009214 -9.88624803111 -4.78042677509 3.82931994496 28.6546994551 16.5687992471 -73.5191931693 -6.59376686765 1.69756507775 0.336349010459 31.1568982764 -21.1489994536 -1.92248993059 -8.4169394444 1.26755995311 -1.22389999655 40.9163984871 -17.6308014555 9.90322019742 -12.8904999073 0.253471014822 
22.133683 1.02112697988 -0.3964217 -7.66904056048 1.03638003437 -92.3226015016 -2.41385011094 -0.044454599708 3.35377997683 -1.41221001951 15.3003989673 19.2692989506 1.37512998973 -13.0510998529 0.129674009539 -2.6953898682 13.6561999718 -0.388108023907 0.483986991144 -0.313246989489 -0.985395980591 75.5652514673 -8.54249881191 -4.83059664898 3.57326981335 27.4390999527 17.3525993129 -73.3502211195 -7.86182179603 2.06549103992 -0.201765002042 32.4183010275 -20.0624000264 -2.21223018372 -6.09243994719 1.72034002338 -1.26005005339 43.0833989447 -17.4231995632 10.5749001466 -12.9644998844 0.291716018749 
22.147305 1.02051697988 -0.3979426 -7.69249030744 0.745727043854 -92.3717993541 -2.5866699052 -0.987173003714 3.12808021769 -1.4735300705 15.3684993684 19.5050992789 1.50904001055 -12.2850002223 0.120939998519 -2.88432997611 13.1604998466 -0.361288992646 0.231273993917 -0.197207998545 -0.952491010656 75.8112065793 -7.12316757314 -4.7616493044 3.28183012378 25.8874005016 18.3389008271 -73.2752802839 -8.69426732282 2.41283497408 -0.444895977574 33.1769984405 -19.5297016202 -2.83060989796 -3.64615988463 1.68220003361 -1.27925996043 44.461399855 -17.1752995548 11.2096996356 -13.4710002462 0.36901599099 
22.161329 1.01988697988 -0.3998796 -7.66238966377 0.334539997505 -92.4727973614 -2.81668015404 -1.92805994986 2.90425000939 -1.65551000221 15.2420008499 19.8567003419 1.64514999262 -11.2658002482 0.105532999402 -3.11464011295 12.5787000642 -0.265769997722 0.057906197041 -0.0336475995949 -0.842954039637 75.9730069306 -5.62304714931 -4.61561943306 3.01192986264 24.2218998536 19.4459003218 -73.2740781706 -8.98161935762 2.79794409137 -0.427184016396 33.1213016629 -19.5483002254 -3.58654001714 -1.12620001017 1.45037999808 -1.27439003555 44.996200252 -16.7907001404 11.5212996958 -14.0832993846 0.444381018663 
22.176227 1.01899697988 -0.4026028 -7.61985978336 -0.0318174990985 -92.5947982004 -2.89039987985 -2.95340986905 2.7933298717 -1.86778993373 15.1812002135 20.1305004276 1.6318201314 -10.1647003294 0.0823656980983 -3.17899009988 12.0875001798 -0.150180998851 -0.222439997999 0.0455562011654 -0.669441995035 76.0985731283 -4.31229201268 -4.34046568923 2.78906014969 22.8597005859 20.5133017947 -73.2709294534 -8.65114492349 3.27140234591 -0.0987571982811 32.3028025286 -20.1757999497 -4.22116021368 1.3597399727 1.09550001739 -1.24205005033 44.7520995363 -16.1852994931 11.8817996415 -14.5770990097 0.514960991895 
22.192569 1.01754697988 -0.4063012 -7.52730986633 -0.317594991865 -92.6991020192 -2.83072003476 -4.2294302921 2.72139005049 -1.98814000134 15.3535993107 20.2331991519 1.6682600444 -9.22323046932 0.0632797016282 -3.12267006753 11.7442993957 -0.0413433017988 -0.618820048002 -0.000677741976798 -0.474093995739 76.2619922343 -3.48246607688 -3.88000165615 2.56507007228 22.1110999001 21.4335997759 -73.2280290352 -7.79841373487 3.81819527435 0.455046999383 30.9733027916 -21.3222984283 -4.62851013446 3.67726968875 0.589719973682 -1.19253993003 43.8010981472 -15.5536999478 12.4087000708 -15.5606001464 0.651267982232 
22.210461 1.01559697988 -0.4108943 -7.34278974458 -0.654246958566 -92.7403017202 -2.85002983332 -5.76501988829 2.52605005532 -1.97692995337 15.5990011774 20.3147003842 1.919350178 -8.19278031981 0.0428947018955 -3.24281010683 11.4766003765 0.0618938002167 -0.835899041194 -0.141815004294 -0.311404999527 76.4586333806 -3.15459565237 -3.31838871131 2.32772996324 21.8093011614 22.3011003948 -73.1102902343 -6.94858025399 4.32397206305 0.925724993403 29.6270007892 -22.5540001017 -4.86209022435 5.74427020048 -0.0514484999747 -1.13875005588 42.1487012172 -15.0772003381 12.6048998161 -17.2074987741 0.841290995296 
